/* XPM */
static char *b385a1cd88c64254edd4a9020163d32f[] = {
/* columns rows colors chars-per-pixel */
"65 65 256 2 ",
"   c #010101",
".  c #0C0C0D",
"X  c #080907",
"o  c #16140D",
"O  c #171716",
"+  c #0E0F10",
"@  c #251E11",
"#  c #201809",
"$  c #2D2412",
"%  c #392E19",
"&  c #3C321B",
"*  c #2C210F",
"=  c #1E1F21",
"-  c #2B2B2B",
";  c #252524",
":  c #2D2C31",
">  c #333233",
",  c #37373A",
"<  c #363328",
"1  c #45371C",
"2  c #4B3D21",
"3  c #423B24",
"4  c #413F3C",
"5  c #3F403B",
"6  c #7C551A",
"7  c #514223",
"8  c #5B4926",
"9  c #5B4B2A",
"0  c #48402E",
"q  c #624F28",
"w  c #63512B",
"e  c #6E592E",
"r  c #6B552C",
"t  c #735C2F",
"y  c #7C5923",
"u  c #665533",
"i  c #6D5A36",
"p  c #735D32",
"a  c #7B6434",
"s  c #7B653B",
"d  c #786338",
"f  c #424245",
"g  c #4B4A4B",
"h  c #45444A",
"j  c #5B554D",
"k  c #4D4D52",
"l  c #545354",
"z  c #5A5A5D",
"x  c #565559",
"c  c #504F52",
"v  c #665B4A",
"b  c #615D51",
"n  c #7A6845",
"m  c #636057",
"M  c #7A6C58",
"N  c #5E5E61",
"B  c #605F65",
"V  c #626165",
"C  c #65646A",
"Z  c #6A696F",
"A  c #6A6969",
"S  c #7A7366",
"D  c #6E6D72",
"F  c #706F74",
"G  c #727176",
"H  c #75747A",
"J  c #7A7A7E",
"K  c #7A797A",
"L  c #855F25",
"P  c #89662A",
"I  c #956C25",
"U  c #966C29",
"Y  c #9C742A",
"T  c #856C3A",
"R  c #876B37",
"E  c #916C33",
"W  c #8B713C",
"Q  c #987638",
"!  c #A57B2B",
"~  c #A47A33",
"^  c #A57E38",
"/  c #836D42",
"(  c #857042",
")  c #8E7544",
"_  c #8B774B",
"`  c #947A44",
"'  c #9A7D42",
"]  c #997E4A",
"[  c #927946",
"{  c #887857",
"}  c #947F5C",
"|  c #877D66",
" . c #827C75",
".. c #AD8334",
"X. c #AD843A",
"o. c #A5813B",
"O. c #B38532",
"+. c #B48935",
"@. c #B88A34",
"#. c #B48B3C",
"$. c #BA8D3B",
"%. c #B58539",
"&. c #BE913F",
"*. c #AC812E",
"=. c #9C8148",
"-. c #9D8456",
";. c #A38344",
":. c #AE8B43",
">. c #A2854B",
",. c #AB8B4A",
"<. c #A7884A",
"1. c #B38C43",
"2. c #B78E45",
"3. c #BD9444",
"4. c #B4924D",
"5. c #BB954A",
"6. c #BE984B",
"7. c #B99344",
"8. c #A58A53",
"9. c #A98C57",
"0. c #AB9158",
"q. c #B49453",
"w. c #B99753",
"e. c #BC9A54",
"r. c #BB9B5B",
"t. c #B5975A",
"y. c #B29050",
"u. c #BCA05C",
"i. c #8C826B",
"p. c #958769",
"a. c #8B8273",
"s. c #978B75",
"d. c #9D937C",
"f. c #A28F6A",
"g. c #AA9469",
"h. c #B99C62",
"j. c #A99978",
"k. c #B19D79",
"l. c #BDA26B",
"z. c #BEA165",
"x. c #BEA572",
"c. c #B9A57A",
"v. c #C19646",
"b. c #C29945",
"n. c #C29749",
"m. c #C39B4C",
"M. c #CA9E4C",
"N. c #CA9B46",
"B. c #C49E52",
"V. c #CA9E52",
"C. c #C29E5B",
"Z. c #C99F58",
"A. c #CCA24D",
"S. c #C9A04B",
"D. c #D1A44E",
"F. c #C6A153",
"G. c #CAA455",
"H. c #CEA856",
"J. c #C4A35B",
"K. c #CBA65A",
"L. c #CEA95C",
"P. c #D1A554",
"I. c #D3A954",
"U. c #D1AB5D",
"Y. c #D9AE5A",
"T. c #D2A75A",
"R. c #D9B15E",
"E. c #C09F6B",
"W. c #C4A464",
"Q. c #CBA762",
"!. c #CEAA62",
"~. c #C2A46A",
"^. c #C5AA6C",
"/. c #CCAC6C",
"(. c #C6A966",
"). c #D1AC63",
"_. c #D1AE69",
"`. c #D9AF60",
"'. c #D5B164",
"]. c #DCB463",
"[. c #D5B26B",
"{. c #D9B46A",
"}. c #DDB96B",
"|. c #C5AA73",
" X c #CBAE72",
".X c #C3AC7B",
"XX c #CAAE7B",
"oX c #C1A775",
"OX c #CAB278",
"+X c #D4B473",
"@X c #DCBB73",
"#X c #D2B47A",
"$X c #D6BA7C",
"%X c #DBBC7A",
"&X c #D9B772",
"*X c #D3AF73",
"=X c #E2BC6C",
"-X c #E0B867",
";X c #E4BE73",
":X c #E3BF78",
">X c #DEC17B",
",X c #E4C175",
"<X c #E3C27C",
"1X c #7D7C82",
"2X c #807F85",
"3X c #818086",
"4X c #87868C",
"5X c #9D9384",
"6X c #8B8A90",
"7X c #908F93",
"8X c #939194",
"9X c #989699",
"0X c #A79B85",
"qX c #ADA184",
"wX c #B6A586",
"eX c #B5AE9E",
"rX c #9D9CA2",
"tX c #A6A5AA",
"yX c #BAB1A3",
"uX c #ADABB1",
"iX c #B6B5BC",
"pX c #B0A9A2",
"aX c #C4AE81",
"sX c #CAB386",
"dX c #D6BB86",
"fX c #DABE83",
"gX c #D4BC8A",
"hX c #D3B681",
"jX c #CCB896",
"kX c #D4BD96",
"lX c #C3BFBC",
"zX c #BFC0BE",
"xX c #DCC18A",
"cX c #DCC391",
"vX c #DCC59B",
"bX c #DEC99E",
"nX c #E1C58B",
"mX c #E2C682",
"MX c #E2CA98",
"NX c #D7C8AD",
"BX c #E3CDA3",
"VX c #ECDAB9",
"CX c #E5D3A5",
"ZX c #BDBCC1",
"AX c #C8C8CC",
"SX c #D5D5D9",
"DX c #D7D1CB",
"FX c #E6D8C3",
"GX c #F3E9D4",
"HX c #EFE2C7",
"JX c #DFDEE2",
"KX c #E7E7EA",
"LX c #EFEFF3",
"PX c #FAFAFB",
"IX c #F0EFF4",
"UX c None",
/* pixels */
"UXUXUXUXUXUXUXUXUXUXUXUXUXUXUXUXUXUXUXUXUXUXUXUXUXUXUXUXUXUXUXUXUXUXUXUXUXUXUXUXUXUXUXUXUXUXUXUXUXUXUXUXUXUXUXUXUXUXUXUXUXUXUXUXUX",
"UXUXUXUXUXUXUXUXUXUXUXUXUXUXUXUXUXUXUXUXUXUXUXUXUXUXUXUXVXcXgXcXdXdXfXvXUXUXUXUXUXUXUXUXUXUXUXUXUXUXUXUXUXUXUXUXUXUXUXUXUXUXUXUXUX",
"UXUXUXUXUXUXUXUXUXUXUXUXUXUXUXUXUXUXUXUXUXUXUXUXbX+XQ.Z.K.T.G.'.).Y.).U.V.V.V.Q.#XBXHXUXUXUXUXUXUXUXUXUXUXUXUXUXUXUXUXUXUXUXUXUXUX",
"UXUXUXUXUXUXUXUXUXUXUXUXUXUXUXUXUXUXUXUXUXbX(.n.V.{.<X<X;X,X=X-X].].-X-X=X=X;X:X].V.5.K.MXGXUXUXUXUXUXUXUXUXUXUXUXUXUXUXUXUXUXUXUX",
"UXUXUXUXUXUXUXUXUXUXUXUXUXUXUXUXUXUXUXhXm.V.'.;X=X].I.D.S.S.I.G.G.H.P.G.M.A.A.I.].;X,X-XG.H.fXGXUXUXUXUXUXUXUXUXUXUXUXUXUXUXUXUXUX",
"UXUXUXUXUXUXUXUXUXUXUXUXUXUXUXUXUXgXV.V.@X:XY.A.S.M.G.A.S.D.I.D.I.T.T.D.A.D.V.V.M.M.D.Y.=X;XG.m.hXGXUXUXUXUXUXUXUXUXUXUXUXUXUXUXUX",
"UXUXUXUXUXUXUXUXUXUXUXUXUXUXUXkXV.m.{.;XY.M.M.A.A.D.A.I.P.M.A.G.b.6.G.G.M.V.D.V.A.G.M.A.A.I.-X}.m.m.vXUXUXUXUXUXUXUXUXUXUXUXUXUXUX",
"UXUXUXUXUXUXUXUXUXUXUXUXUXUX Xm.{.=XP.N.N.M.G.M.D.G.1.m.D.C.F.S.(.!.A.F.r.A.M.5.G.P.G.G.H.G.D.I.;X{.v.Q.HXUXUXUXUXUXUXUXUXUXUXUXUX",
"UXUXUXUXUXUXUXUXUXUXUXUXUXv.Z.;X].D.N.N.M.A.M.6.H.U.$XU.F.@XU.M.'.U.m.U.@XG.K. XH.F.7.F.H.H.K.H.P.-X;XM.n.vXUXUXUXUXUXUXUXUXUXUXUX",
"UXUXUXUXUXUXUXUXUXUXUXk.3.T.-XI.S.A.S.N.m.A.K.%XH.G.U.G.G.S.S.G.S.m.m.F.S.m.K.{.m.K. XH.F.F.G.G.B.G.D.=XL.v.gXUXUXUXUXUXUXUXUXUXUX",
"UXUXUXUXUXUXUXUXUXUXg.&.;X=XD.A.A.D.G.F.C.D.K.U.G.G.G.F.G.m.m.F.m.G.S.F.F.F.m.6.n.F.[.G.m.q.S.G.V.m.m.M.].'.v.sXUXUXUXUXUXUXUXUXUX",
"UXUXUXUXUXUXUXUXUXj.%.&X-XD.P.V.V.G.M.'.;XV.G.G.G.G.H.) 0.e.W _ t.s >.) z.>.K.w.J.m.m.m.).@XG.B.B.V.m.M.A.Y.`.&.sXUXUXUXUXUXUXUXUX",
"UXUXUXUXUXUXUXUXs.O.R.-XA.A.G.A.F.J.G.A.S.F.L.H.K.>.) & W e e 7 w p Q 2 W u a 9 _ m.B.C.r.m.G.W.(.A.V.G.Z.N.Y.`.3.kXUXUXUXUXUXUXUX",
"UXUXUXUXUXUXUXUX%.).R.A.G.G.G.A.'.@XG.G.F.H.4.<.9 _ ,.W W ,.d ) ,.=.;.=.a ` d 7 q.J.W u s s F.[.}.G.m.F.V.V.A.].).#.FXUXUXUXUXUXUX",
"UXUXUXUXUXUXUX;.T.,XS.G.H.H.e.e.A.F.H.F.G.,.p 7 w 0.L.G.F.J.).!.[./.!.L.H.G.u.4.F.K.7 ' G.>.~.K.K.K.h.B.V.V.V.D.`.V.2.UXUXUXUXUXUX",
"UXUXUXUXUXUX-.3.,XG.S.H.G.G.>X{.H.F.K.y.p e 9 d 4.K.U.J.F.(.k.| i.xXxXOX+XK.L.G.K.K.<.T W q s 9.G._.<XK.A.G.Z.D.D.].M.oXUXUXUXUXUX",
"UXUXUXUXUXUXX.;XY.A.G.J.m.G.F.G.H.w.4.% ) d e.F.L.K.e.h.M X       T @XcXxX+XOX$X+XK.K.K.K.e w n -.h.V.G.e.K.G.H.A.Y.].v.NXUXUXUXUX",
"UXUXUXUXUX<.G.{.A.G.H.K.z.G.H.G.=.d d e & /.L.L.F.w.x.=.#         % e.r.!.>Xf.s.fX*XJ.K.K.r.>.e e 8./.G.>X'.L.L.G.A.R.V.q.UXUXUXUX",
"UXUXUXUX{ 7.;XV.G.H.L.{.mXH.K.=.2 s w ,.=.(.U.L.e.x.u.#.p + X     * <.6.B.r.3   b kX$X!.L.)._.;.d % _ h.H.L.K.H.P.V.D.Y.&.NXUXUXUX",
"UXUXUXUX>.'.].M.H.H.e.F.G.H.U.q.W p =.U.L.L.K.q.x.z.6.Q Q & X     @ o.q.K.n O +   < vX#XQ.!.K.K.` ` 3 d L.F.t.H.G.P.D.Y.).h.UXUXUX",
"UXUXUXM 2.:XD.G.G.L.|.H.G.K.H.U.,.=.K.U.U.L.F.l.OX6.^ E P w X     * E ^ >.O + o . i MXcX+XL.K.U.U.) ` K.T.U.<XU.H.H.T.I.].M.NXUXUX",
"UXUXUX-.T.{.A.G.H.U.@XU.G.G.H.K.L.U.U.U.U.u..XsXJ.o.E E y y o     % ) -.u     + u r.J.CXxX!.!.).U.U.'.K.H.K.G.G.K.H.T.D.Y.Y.E.UXUX",
"UXUXUX1.{.I.G.G.F.F.G.G.K.K.L.K.U.'.'.L.L.e.0.k.e.Q L E P L & . j A K N z J 5 p r.t.<.#XMX[.).'.).).).'.L.H.U.r.q.U.T.H.P.'.C.UXUX",
"UXUX{ 6.{.G.H.G.F.r.G.K.K.K.H.L.U.U.U.L.L.J.0.=.g.,.6 R P y i D G O > ; - g l j.8.t.q.<.bX%XU.L.).).U.U.L.U.H.@X,XU.U.U.P.`.G.jXUX",
"UXUX9.Q.R.F.H.F.{.>XH.H.G.K.K.K.K.K.U.(.!.!.!.r.] -.` y y s a.O - > , c 5 - - K g.8.i @ qXxX_.'.'.).).L.).U.U.K.H.K.).U.H.I.P.~.UX",
"UXUX,.'.I.F.G.G.F.K.L.F.K.K.G.K.H.K.L.U.!.(.L.!.J.>.} R r A h > 5 7XuX8XK 1Xg - m 5 + X i.dX_.'.U.U.).).).).U.U.F.q.H.U.H.I.`.y.UX",
"UXj 2.`.A.H.S.u.u.K.H.K.L.K.K.G.H.K.K.K.L.K.L.K.K.!.W S a.= = x uXZXAXKXiXrXA g z j X   d.$X'._.).).).L.H.).L.K.&XmXH.).U.I.R.m.DX",
"UXM n.'.H.L.F.[.@XH.F.K.K.F.K.F.F.K.H.K.L.L.U.U.U._.,.d.lXz 5 K l k 3XIXLXJX4Xg - 5 O X jX&X'.U.L.U.L.K.L.H.L.U.L.H.L.H.H.G.T.G.jX",
"UX} m.G.A.H.H.F.G.H.G.L.K.F.J.G.J.G.K.(.L.L.!.[.!._.r./ eXAXz tXuXf z SXLXLXJXc g g > ; cX_.U.U.).!.H.L.K.L.!.L.H.7.7.K.H.G.I.I.aX",
"UX9.F.G.G.L.G.q.F.K.K.H.H.J.F.F.G.K.K.K.U.L.U.!.)._.(.] lXSX8XrXIXB h AXJXKXPX1Xh z M k.fX).).).).H.K.!.K.L.L.L.K.#X_.G.K.H.A.G.XX",
"UX9.V.P.H.K.).nX).K.F.F.G.F.K.F.K.K.K.L.!.!.).!.U._.u.f.tXPXKX6XKX4X, AXSXSXPXuX: k n gXfX).).'.'.U.).K.H.K.L.!.U.'.'.H.K.H.S.A.~.",
"UXt.G.A.H.G.H.K.F.F.F.J.F.G.K.L.K.L.L.L.U.U.).).L.!.q.5XZ uXJX1XAXrX> rXZXiXLXiX: N | XX$X_.).).).).!.T.).G.K.L.H.J.B.U.H.H.N.V.).",
"UXq.F.A.K.G.e.4.K.L.J.F.G.F.F.K.L.K.L.).L.L.L._.Q.).9.p., rXuXH tXtX, D rX1XZXrX: s.kXfX&X).K._.).K.K.).L.L.K.T.T.J./.P.K.H.M.M._.",
"UXq.6.b.H.G.U.$X!.K.K.K.K.F.K.K.L.L.).).).).L.K.K.).y.p.4XZXAX2X1X7XC F 1XC 4X1Xx 0X$X*X[.).).!.).Q.U.K.U.!.K.U.H.[.@XK.K.G.v.m.[.",
"UX~.5.7.K.K.'.{.U.K.K.K.K.G.K.T.L.L.).U.).L.!.!._.).9.a.x rXAX2X1Xz B D D 4XrX1Xk 5XfX).).).Q.!.).K.).K.L.U.T.K.L.K.F.G.G.H.&.m.%X",
"UX|.6.7.L.!.U.u.K.).K.G.J.K.K.K.K.L.).'.U._.K.!.).!.] v k Z V N 1XC C D B 1X7X1Xz  .cX).).Q.).K.K.U.!.).L.L.L.K.H.r.w.K.H.D.$.m.fX",
"UXc.6.#.L.'.).|.Q.L.K.K.J.K.K.).L.L.U.).!.)._._.!.Q.] j h ,   v p.D x B D 1X1X1Xz  .xX).).Q.).).T.!.!.L.K.K.K.K.H.%X>XH.U.G.@.b.nX",
"UXk.6.o.H.).'.mX).F.G.G.G.K.K.K.U.L.U.L.)._.)._.!.).[ | k : g._.t.8X1XC D 1X1X1XV  .hX_.T.K.).T.K.K.U.K.T.K.L.G.K.F.G.L.K.G...n.BX",
"UXi.F.^ G.K.).J.F.K.K.F.V.!.K.K.!.).L.L.).Q.).).).).[  .x j.c.wX7X1X4X1XC D C D yX+X/.).!.Q.K.J.K.K.K.K.K.K.L.K.F.y.G.K.G.S.*.V.HX",
"UXj /.^ 6.G.F.J.h.G.L.K.K.L.L.K.L.U.L.!.).)._.).Q.Q.[ S B x.l Z 1XH 1XD D C C 6XgX_.).).).).K.J.Z.J.K.K.K.Q.K.U.!.mXH.G.H.v.~ U.UX",
"UXUX#X;.$.G.F.'.>XH.K.K.F.K.K.L.K.K.L.L.L.L./.!.L.K.=.d.aX-.j C 1XF 1XF D C H sX*X_.U.U.!.!.K.K.G.K.K.K.K.L.G.K.K.K.G.F.L.#...@XUX",
"UXUXc.2.o.G.F.G.m.F.G.K.K.J.J.K.K.L.L.L.K.L.).!.L.L.9.d.%X_ l Z 1XF F F A D sX[._.'.).T.!.J.K.K.L.J.K.K.J.K.G.B.y.F.K.F.G.*.3.MXUX",
"UXUXp.K.E S.G.K.e.u.F.H.F.G.F.F.L.K.K.L.L.!.L.L.U.u.g.0X$X_ g F 1XF Z H 9XXX_._.).).K.Q.L.L.L.!.).K.H.F.G.H.F.K.+XK.K.H.b.Y G.HXUX",
"UXUXUX[.Q X.G.F.).>XK.L.K.K.K.K.G.K.K.K.L.L.L.L.K.q.k.qX+X_ f J H Z H yX XK.)._.K.!.K.U.!.L.L.L.K.G.K.K.F.K.H.G.U.G.F.H.+...[.UXUX",
"UXUXUX.X1.I G.F.B.6.F.e.F.L.F.K.K.K.J.L.K.K.K.K.L.y.f.k._.{ g J 1X8XwX_._.).!.L.L.L.L.L.K.!.L.L.K.K.K.G.F.G.w.e.K.K.A.S.Y 7.MXUXUX",
"UXUXUXS G.P $.F.F.F.z.K.G.K.J.K.H.K.F.F.G.K.G.J.!.e.g.l.!._ k 6XpXE.!.).!.!.!.L.L.K.K.L.L.K.K.!.!.K.K.G.G.G._.[.S.F.S.#.Y U.UXUXUX",
"UXUXUXUX.XX.I S.S.F.[.'.F.F.G.F.e._ ^.F.G.F.G.J.G.F.e.(.u.{ k qX/.).).).!.(.U.L.L.K.L.!.K.L.L.!./.L.J.G.K.F.G.L.F.F.M.Y 3.nXUXUXUX",
"UXUXUXUXS G.E +.G.F.F.6.,.B.K.Q & 2 ( (.F.G.F.G.J.F.F.J.F.-.f.).).K.).U.L.L.L.U.!.K.K.L.K.K.L.p n z.G.G.e.q.S.F.F.S.+.! H.UXUXUXUX",
"UXUXUXUXUXXX2.I 6.F.F.J.%XF.F.a a T W z.F.F.F.F.F.G.J.K.u.e.H.L.K.K.L.L.K.K.K.K.K.K.K.G.K.B.T & i q.F.F.!.>XF.F.F.&.! 7.nXUXUXUXUX",
"UXUXUXUXUXm L.Y Y M.B.B.G.m.4.m.F.F.a s u.F.F.H.F.F.G.G.G.G.F.F.K.K.K.K.K.K.!.G.F.B.Z.G.q.;.e e >.S.6.5.m.m.S.6.b.*...'.UXUXUXUXUX",
"UXUXUXUXUXUXk.3.I O.m.m.F.e.l.F.F.F.7 p u u.z.F.F.F.F.F.F.F.F.F.G.K.B.J.G.F.F.F.F.F.B.T / 8 e m.m.S.u.J.S.m.S.b.+.! S.VXUXUXUXUXUX",
"UXUXUXUXUXUXUXXX2.U $.m.m.F.[.S.X.6.;.p s 2 d ,.m.<.<.(.F.F.F.F.B.B.B.B.B.B.J.G.e.8.e e 2 5.m.N.3.6.U.U.n.m.6.#.Y $.nXUXUXUXUXUXUX",
"UXUXUXUXUXUXUXj _.%.I #.6.m.m.6.z.F.m.m.W W 4.6.F.<.q u T =.S.F.m.m.F.G.R t i 8.8 >.e q ;.m.n.b.y.7.v.v.n.v.@.! +.&XUXUXUXUXUXUXUX",
"UXUXUXUXUXUXUXUXi.T.~ I $.6.6.m.'.F.:.:.S.m.S.m.m.m.8 ;.s & n w.[ n W.m.r 2 3 a 8 m.m.6.n.3.5.m.@XG.m.m.v.O.! +.'.UXUXUXUXUXUXUXUX",
"UXUXUXUXUXUXUXUXUXd.K.~ U +.6.m.6.m.K._.m.5.6.6.m.m.s S.q t p 8 $ u 8.6.a 2 a ;.6.m.m.5.v.r.B.3.3.v.n.3.O.7.$.T.UXUXUXUXUXUXUXUXUX",
"UXUXUXUXUXUXUXUXUXUXj.G.o.U *.$.6.6.F.F.6.t.6.6.7.m.F.F.' :.W t q R <.m.:.' 6.m.F.n.,.1.5.'.G.b.3.v.@.*.5.3.G.UXUXUXUXUXUXUXUXUXUX",
"UXUXUXUXUXUXUXUXUXUXUXs.K.^ ^ #.#.v.n.6.m.@XG.5.=.7.6.5.B.F.S.n.6.S.F.S.7.m.m.o.1.b._.).3.3.b.b.3.O.7.F.$.V.UXUXUXUXUXUXUXUXUXUXUX",
"UXUXUXUXUXUXUXUXUXUXUXUX| _.5.l.w...#.n.n.n.6.G.%XF.6.t.m.6.o.3.6.,.3.b.4.7.b.(.J.b.F.m.n.3.3.$.@.e.K.&.).UXUXUXUXUXUXUXUXUXUXUXUX",
"UXUXUXUXUXUXUXUXUXUXUXUXUXUXXXn.t.E.2.~ &.n.m.b.n.n.F.}.m.F. Xn.b./.F.3.&XH.6.A.m.m.m.6.b.$.O.4.(.w.&.fXUXUXUXUXUXUXUXUXUXUXUXUXUX",
"UXUXUXUXUXUXUXUXUXUXUXUXUXUXUXqXZ.1.h.l.q...#.3.6.7.6.7.6.F.G.n.n.G.6.6.6.n.n.v.3.3.3.@.@.e. XJ.$.T.NXUXUXUXUXUXUXUXUXUXUXUXUXUXUX",
"UXUXUXUXUXUXUXUXUXUXUXUXUXUXUXUXUXXXB.:.h.c.h.%.O.@.$.3.n.5.3.n.b.b.n.v.3.v.&.&.@.O.7.(.hX Xn.P.gXUXUXUXUXUXUXUXUXUXUXUXUXUXUXUXUX",
"UXUXUXUXUXUXUXUXUXUXUXUXUXUXUXUXUXUX| .XB.1.r..X.XW.w.7.O.O.@.@.@.@.@.@.@.#.7.e.~.XX.X(.n.T.gXUXUXUXUXUXUXUXUXUXUXUXUXUXUXUXUXUXUX",
"UXUXUXUXUXUXUXUXUXUXUXUXUXUXUXUXUXUXUXUXUXc.K.v.n.W.oXaXaX.X|.^.^.l.oX|..XaX.Xx.C.B.G.[.jXUXUXUXUXUXUXUXUXUXUXUXUXUXUXUXUXUXUXUXUX",
"UXUXUXUXUXUXUXUXUXUXUXUXUXUXUXUXUXUXUXUXUXUXUX .aX#XU.G.m.m.m.C.C.J.C.Z.m.n.M.G.*XjXUXUXUXUXUXUXUXUXUXUXUXUXUXUXUXUXUXUXUXUXUXUXUX",
"UXUXUXUXUXUXUXUXUXUXUXUXUXUXUXUXUXUXUXUXUXUXUXUXUXUXUXUXwXaXXXOX#X#X#XaXaXwXUXUXUXUXUXUXUXUXUXUXUXUXUXUXUXUXUXUXUXUXUXUXUXUXUXUXUX"
};
