/* XPM */
static char *_d895b2d279c44d0ab9e95aeb83eed52[] = {
/* columns rows colors chars-per-pixel */
"19 19 228 2 ",
"   c #332915",
".  c #322A1A",
"X  c #322D24",
"o  c #66491D",
"O  c #4E4532",
"+  c #66532F",
"@  c #62543D",
"#  c #5D5646",
"$  c #565150",
"%  c #575658",
"&  c #7B725F",
"*  c #66676B",
"=  c #6C6B71",
"-  c #727175",
";  c #727177",
":  c #876D3B",
">  c #816B3E",
",  c #92753B",
"<  c #94763A",
"1  c #92773F",
"2  c #95783D",
"3  c #9C7D3E",
"4  c #887040",
"5  c #8E7647",
"6  c #977B41",
"7  c #997E47",
"8  c #8A7850",
"9  c #8A7955",
"0  c #817864",
"q  c #897D62",
"w  c #8E7F63",
"e  c #897B65",
"r  c #887C64",
"t  c #837E7B",
"y  c #B3893C",
"u  c #B38A3D",
"i  c #B88D3A",
"p  c #9D8046",
"a  c #9E8147",
"s  c #9E8246",
"d  c #9C8148",
"f  c #9E824E",
"g  c #9D8551",
"h  c #91825F",
"j  c #A18343",
"k  c #A38342",
"l  c #A28345",
"z  c #A28346",
"x  c #A18447",
"c  c #AC8B46",
"v  c #AD8B47",
"b  c #A88B4B",
"n  c #AC8B48",
"m  c #AD8C4A",
"M  c #AA8B4C",
"N  c #B79041",
"B  c #BC9140",
"V  c #BC9340",
"C  c #BD9241",
"Z  c #BA9347",
"A  c #BD9545",
"S  c #BC9446",
"D  c #BD9547",
"F  c #BE9646",
"G  c #B2904D",
"H  c #B1914F",
"J  c #BE9748",
"K  c #BE9749",
"L  c #BF974B",
"P  c #BF994A",
"I  c #BE984D",
"U  c #BE994F",
"Y  c #A28852",
"T  c #A88D57",
"R  c #A0895A",
"E  c #AC9052",
"W  c #AC9158",
"Q  c #AB915C",
"!  c #B39153",
"~  c #B69552",
"^  c #B49556",
"/  c #BA9750",
"(  c #BC9954",
")  c #BD9A54",
"_  c #BB9B59",
"`  c #BF9E5A",
"'  c #B8995F",
"]  c #938368",
"[  c #928569",
"{  c #93876D",
"}  c #85817F",
"|  c #8E8578",
" . c #B09766",
".. c #B59A65",
"X. c #BFA061",
"o. c #BAA16D",
"O. c #BBA56F",
"+. c #BFA56E",
"@. c #B9A274",
"#. c #C19848",
"$. c #C29A48",
"%. c #C0994A",
"&. c #C09A4D",
"*. c #C19C4E",
"=. c #C39E4F",
"-. c #C49D4C",
";. c #CB9F4C",
":. c #C09D57",
">. c #C29F59",
",. c #C39F5B",
"<. c #C09F5D",
"1. c #CAA04C",
"2. c #CCA14C",
"3. c #CDA14D",
"4. c #CCA24C",
"5. c #CCA14E",
"6. c #C7A052",
"7. c #C6A156",
"8. c #C9A151",
"9. c #CBA350",
"0. c #CBA251",
"q. c #C9A153",
"w. c #CCA250",
"e. c #CCA350",
"r. c #CBA452",
"t. c #CAA453",
"y. c #CBA453",
"u. c #CFA550",
"i. c #CFA651",
"p. c #CEA552",
"a. c #CEA553",
"s. c #C9A356",
"d. c #C9A456",
"f. c #C9A457",
"g. c #CAA557",
"h. c #CDA655",
"j. c #CFA856",
"k. c #C3A05A",
"l. c #C3A15B",
"z. c #C6A158",
"x. c #C4A15B",
"c. c #C6A35A",
"v. c #C6A35B",
"b. c #C6A25E",
"n. c #CAA458",
"m. c #CBA458",
"M. c #CAA558",
"N. c #CBA558",
"B. c #CAA559",
"V. c #CBA559",
"C. c #CAA55A",
"Z. c #CBA55B",
"A. c #C9A65A",
"S. c #CAA65A",
"D. c #CBA65A",
"F. c #CBA75B",
"G. c #CCA758",
"H. c #CCA65A",
"J. c #CCA75A",
"K. c #CCA75B",
"L. c #CAA75D",
"P. c #CDA75E",
"I. c #CDA859",
"U. c #CCA85B",
"Y. c #CDA95B",
"T. c #CBA85F",
"R. c #CDA85C",
"E. c #CDA85D",
"W. c #CCA95D",
"Q. c #CDA95D",
"!. c #CEA95D",
"~. c #CCA95F",
"^. c #CEA95E",
"/. c #CEAA5E",
"(. c #CFAB5E",
"). c #CEAA5F",
"_. c #D0AB5E",
"`. c #C2A063",
"'. c #C2A163",
"]. c #C6A463",
"[. c #CBA760",
"{. c #CEA760",
"}. c #CBA860",
"|. c #CEAA60",
" X c #CEAB63",
".X c #CFAB63",
"XX c #D0AD65",
"oX c #D1AD65",
"OX c #D1AE69",
"+X c #D4B06A",
"@X c #D7B36B",
"#X c #D5B36F",
"$X c #C9AC70",
"%X c #CAAC70",
"&X c #C2A979",
"*X c #C9AF7C",
"=X c #CFB074",
"-X c #D7B470",
";X c #D9B773",
":X c #DAB675",
">X c #D6B679",
",X c #D3B57D",
"<X c #D3B67E",
"1X c #D9B979",
"2X c #7C7D82",
"3X c #828187",
"4X c #8D8782",
"5X c #87868C",
"6X c #89888E",
"7X c #9B989B",
"8X c #B2A486",
"9X c #BDA783",
"0X c #B0ADAB",
"qX c #C3AE81",
"wX c #C5B28A",
"eX c #D2B680",
"rX c #DDC28B",
"tX c #DDC38F",
"yX c #E0C48E",
"uX c #E3CD9E",
"iX c #E5D2AE",
"pX c #E3D2B7",
"aX c #E9D9B9",
"sX c #EADBBD",
"dX c #E9DAC3",
"fX c #EBDDC2",
"gX c #E4E3E7",
"hX c None",
/* pixels */
"hXhXhXhXhXhXhXhXhXhXhXhXhXhXhXhXhXhXhX",
"hXhXhXhXhXhXhXrX:X@X:XtXsXhXhXhXhXhXhX",
"hXhXhXhXhX+X3.2.e.e.9.5.e.-XfXhXhXhXhX",
"hXhXhX9Xi.3.=.H s T Q ^ <.9.3.iXhXhXhX",
"hXhXhXw.r.F.z 1 9 h qXo.Y l.7.;.fXhXhX",
"hXhXb.h.b : 7 +..   %X8X*Xf E e.{.hXhX",
"hX] 9.F./ ~ O.m o X O + uX%Xv.!.e.pXhX",
"hX..r.K.f.( 7 8 @ * 2X# q 1X_.!.j.,XhX",
"hX) d.F.f.F.v.> 0X5XgX% wX-X!.W.K.P.hX",
"hXI !.n.f.!. X4 7X3X6Xt tXoX!.K.K.f.hX",
"hX_ !.F.K.!. X5 $ | = 4X>XP.!.F.F.T.hX",
"hX .*.F.F.!.}.g e ; - eXOXn.F.F.-.eXhX",
"hXe N F.7.W.z.E w } =XoX!.P.d.F.V aXhX",
"hXhX! P x 6 k.H R X. XF.>.d k.#.z.hXhX",
"hXhX& u I n k c z :.M z , I #.i hXhXhX",
"hXhXhX[ u D *.c 2 < 3 k L C B hXhXhXhX",
"hXhXhXhX0 ' Z D L P D D J ].hXhXhXhXhX",
"hXhXhXhXhXhX{ @.`.>.'.&XhXhXhXhXhXhXhX",
"hXhXhXhXhXhXhXhXhXhXhXhXhXhXhXhXhXhXhX"
};
