/* XPM */
static char *de6e8609575449e5f5d720993bae3bf7[] = {
/* columns rows colors chars-per-pixel */
"34 35 203 2 ",
"   c #010100",
".  c #0B0C0B",
"X  c #120E06",
"o  c #1E1608",
"O  c #241F16",
"+  c #2A2824",
"@  c #2C2B30",
"#  c #3B3C3D",
"$  c #574524",
"%  c #4E4431",
"&  c #775826",
"*  c #735D2E",
"=  c #6A5732",
"-  c #6B5830",
";  c #68583E",
":  c #755E31",
">  c #766234",
",  c #7C6435",
"<  c #77643A",
"1  c #7E673A",
"2  c #7F6838",
"3  c #424346",
"4  c #42434A",
"5  c #474849",
"6  c #4D4D4E",
"7  c #554E41",
"8  c #5E5B5E",
"9  c #615946",
"0  c #696355",
"q  c #6F6959",
"w  c #706A58",
"e  c #646264",
"r  c #6A6967",
"t  c #65646A",
"y  c #686568",
"u  c #69686D",
"i  c #797065",
"p  c #6E6D73",
"a  c #706F75",
"s  c #727177",
"d  c #737278",
"f  c #78777D",
"g  c #79787E",
"h  c #835C21",
"j  c #846128",
"k  c #926A2E",
"l  c #826937",
"z  c #836C3C",
"x  c #8A6F38",
"c  c #8D723B",
"v  c #927437",
"b  c #91763C",
"n  c #A57A2D",
"m  c #A77F35",
"M  c #A97E32",
"N  c #867146",
"B  c #8E7542",
"V  c #927742",
"C  c #937944",
"Z  c #9B7E43",
"A  c #967D4D",
"S  c #9A7F4A",
"D  c #87795D",
"F  c #857963",
"G  c #887A63",
"H  c #897E68",
"J  c #AE822E",
"K  c #AF8535",
"L  c #AC843B",
"P  c #AD893F",
"I  c #B18633",
"U  c #B58A36",
"Y  c #B38A3B",
"T  c #BA8F3E",
"R  c #BE943F",
"E  c #9E8146",
"W  c #9D814B",
"Q  c #998357",
"!  c #94815D",
"~  c #A58442",
"^  c #A88341",
"/  c #AE8C47",
"(  c #A38549",
")  c #A6894F",
"_  c #AA8C4C",
"`  c #B28B42",
"'  c #B28F4A",
"]  c #BC9343",
"[  c #B5924D",
"{  c #BB954B",
"}  c #BE994D",
"|  c #AB8E54",
" . c #AB8F59",
".. c #AC925A",
"X. c #B49453",
"o. c #BB9652",
"O. c #BD9B54",
"+. c #B1935C",
"@. c #B8965E",
"#. c #B7985A",
"$. c #BD9C5B",
"%. c #8F8063",
"&. c #908165",
"*. c #998965",
"=. c #90856D",
"-. c #958A6F",
";. c #98886B",
":. c #918775",
">. c #958872",
",. c #9B8D73",
"<. c #A58C62",
"1. c #A9956F",
"2. c #B59663",
"3. c #BA9D60",
"4. c #B39C6B",
"5. c #BA9D6A",
"6. c #A29374",
"7. c #AE9B72",
"8. c #A3937A",
"9. c #B39E74",
"0. c #BDA164",
"q. c #BEA36B",
"w. c #B5A273",
"e. c #BAA173",
"r. c #BBA37C",
"t. c #C19544",
"y. c #C29846",
"u. c #C49C4C",
"i. c #C99E4B",
"p. c #C49E53",
"a. c #C99E51",
"s. c #C29E5C",
"d. c #CCA24E",
"f. c #C6A154",
"g. c #CAA354",
"h. c #C6A25B",
"j. c #CBA65A",
"k. c #CDA95D",
"l. c #D1A552",
"z. c #D3A955",
"x. c #D3AB5B",
"c. c #D8AE5E",
"v. c #C5A364",
"b. c #CBA760",
"n. c #CEAB62",
"m. c #C7A66B",
"M. c #CCAB6C",
"N. c #D1AC63",
"B. c #D2AE69",
"V. c #D3B066",
"C. c #D3B16C",
"Z. c #C4AA76",
"A. c #CDAE72",
"S. c #CEB077",
"D. c #CEB17E",
"F. c #D5B474",
"G. c #D4B57A",
"H. c #D6B87C",
"J. c #DABA7C",
"K. c #7D7C82",
"L. c #818086",
"P. c #848389",
"I. c #8A898D",
"U. c #908C8B",
"Y. c #97928E",
"T. c #8D8C92",
"R. c #929198",
"E. c #B1A282",
"W. c #B5A68E",
"Q. c #BCA988",
"!. c #9F9EA3",
"~. c #A5A4AA",
"^. c #B5B4BA",
"/. c #BABABE",
"(. c #C7AE82",
"). c #CFB485",
"_. c #D6B881",
"`. c #DABD82",
"'. c #D4BD8C",
"]. c #D9BD8A",
"[. c #C4B190",
"{. c #D3BA92",
"}. c #DDC38D",
"|. c #DCC493",
" X c #DBC59A",
".X c #E0C693",
"XX c #E1CA9B",
"oX c #D7C4A8",
"OX c #DFCFB6",
"+X c #E4CDA4",
"@X c #ECD9B2",
"#X c #EADABB",
"$X c #C0BFC3",
"%X c #CAC8C5",
"&X c #C8C7CC",
"*X c #CFCED4",
"=X c #D8D7DC",
"-X c #E5DBC7",
";X c #EDE1C5",
":X c #ECE1CD",
">X c #DFDEE3",
",X c #FCFBFE",
"<X c None",
/* pixels */
"<X<X<X<X<X<X<X<X<X<X<X<X<X<X<X<X<X<X<X<X<X<X<X<X<X<X<X<X<X<X<X<X<X<X",
"<X<X<X<X<X<X<X<X<X<X<X<X<X<XXX].`.J.`.}.+X#X<X<X<X<X<X<X<X<X<X<X<X<X",
"<X<X<X<X<X<X<X<X<X<X<X}.B.c.c.z.c.c.c.z.c.c.V.}.;X<X<X<X<X<X<X<X<X<X",
"<X<X<X<X<X<X<X<X<XG.z.z.l.d.d.d.d.d.g.i.i.l.z.z.c.G.:X<X<X<X<X<X<X<X",
"<X<X<X<X<X<X<X(.V.z.d.i.d.g.g.g.d.k.f.j.f.d.p.g.l.c.k. X<X<X<X<X<X<X",
"<X<X<X<X<X<Xe.z.z.d.i.d.k.k.k.f.f.f.f.f.j.f.k.p.g.g.l.l.G.<X<X<X<X<X",
"<X<X<X<X<X5.x.z.d.f.k.k.g.h.E E x B V Z W X.p.k.h.f.i.l.l.D.<X<X<X<X",
"<X<X<X<X1.g.l.d.g.k.d.f.B B Z V W .. .C l _ c V v.N.p.i.l.g.{.<X<X<X",
"<X<X<X<Xf.x.d.j.k.g.( > 2 [ p.q.D 7.}.F.F.M.W c 1 v.N.f.d.l.d.-X<X<X",
"<X<X<X@.x.g.k.j._ x - E h.X.4..   o f.}.6.}.H.$.V 1 #.n.k.g.x.v.<X<X",
"<X<XG k.l.g.k.k.E > O.h.X.Z.L $   X L W . + |.G.n.W z k.n.j.l.l.OX<X",
"<X<X2.x.g.k.k.g.k.j.k.$.w.P k &   O Q % . - }.|.C.x.h.z.x.g.l.z.S.<X",
"<X<Xg.z.j.h.l.j.k.x.n.X.Q ..& j 7 5 # 3 0 0._  XJ.N.N.k.k.n.k.z.g.<X",
"<X&.g.g.h.x.j.j.j.k.k.h.) N W ; # e I.e 5 w O =.J.V.x.N.k.k.b.z.d.oX",
"<X<.l.g.k.j.j.j.g.g.k.k.k.) &.r 6 K.&X>Xp # . E.F.x.k.k.j.V.k.j.z.).",
"<X+.d.j.h.j.j.g.f.j.k.k.n.$.N %X!.P.P.,X$X4 9 |.V.N.x.j.k.j.j.j.g.m.",
"<XO.g.k.k.f.f.f.j.j.k.n.n.h.-.^./.~.p *X=X4 *.`.C.N.b.k.j.k.x.k.d.k.",
"<X[ d.j.k.j.j.h.j.k.N.x.k.X.%.T.!.T.e P.R.e |.F.N.N.k.k.k.k.N.k.i.b.",
"<X$.} k.n.k.g.j.j.k.V.k.n.+.D d L.u t d I.y |.B.n.k.n.k.k.k.h.g.y.N.",
"<Xq.] V.C.j.h.j.k.k.k.n.V.| G @ ! 8.t a K.e '.N.x.k.k.k.j.j.n.z.] F.",
"<X7.Y k.b.h.g.j.k.N.k.V.N.) >.i 8.U.f u a [.F.N.j.g.j.j.j.n.k.g.U .X",
"<X-.Y f.k.g.j.j.k.j.k.k.N._ 1.<.8 f s e W.C.N.b.j.j.j.j.j.a.k.d.Y #X",
"<X<X[ } j.j.j.f.j.j.j.k.k.X.w.Q e d f Q.C.N.k.k.k.k.g.j.j.h.k.] { <X",
"<X<X4.M g.h.f.j.j.j.j.j.j.[ w.W t Y.r.V.n.k.k.k.k.k.j.j.h.g.f.K _.<X",
"<X<XF m ] j.h.p._ Z v.j.f.o.$.Q :.B.B.n.x.j.k.j.h.0.k.p.j.j.] U <X<X",
"<X<X<X5.n f.h.p.v l | p.f.f.O.| 5.n.k.k.k.j.j.h.z < p.g.h.i.J G.<X<X",
"<X<X<X0 ` K d.h.O.~ - W s.p.p.O.p.h.g.a.f.p._ , x y.h.p.u.I ] <X<X<X",
"<X<X<X<X6.M K f.p.p.~ b [ ' , E h.f.p.x z B , b y.} u.u.U I @X<X<X<X",
"<X<X<X<X<X9.n K y.f.p.} y.~ v , > = [ : , / ] } u.p.t.Y U XX<X<X<X<X",
"<X<X<X<X<X<X9.m ` ] u.h.O./ ~ c * * ` v ~ { p.u.u.T T ] |.<X<X<X<X<X",
"<X<X<X<X<X<X<X6.s.' ` ] u.f.f.p.} u.u.f.u.p.y.t.] ] g.<X<X<X<X<X<X<X",
"<X<X<X<X<X<X<X<Xq q.o.[ ' ] ] } y.y.} ] R T } O.s.S.<X<X<X<X<X<X<X<X",
"<X<X<X<X<X<X<X<X<X<XH e.v.s.$.} O.o.o.o.$.h.A.).<X<X<X<X<X<X<X<X<X<X",
"<X<X<X<X<X<X<X<X<X<X<X<X<X,.r.Z.m.M.M.Z.r.<X<X<X<X<X<X<X<X<X<X<X<X<X",
"<X<X<X<X<X<X<X<X<X<X<X<X<X<X<X<X<X<X<X<X<X<X<X<X<X<X<X<X<X<X<X<X<X<X"
};
